HIERARCHY
ROOT Hips
{
	OFFSET 0.000000 0.000000 0.000000 
	CHANNELS 6 Xposition Yposition Zposition Zrotation Yrotation Xrotation
	JOINT LeftUpLeg
	{
		OFFSET 1.363060 -1.794630 0.839290 
		CHANNELS 3 Zrotation Yrotation Xrotation
		JOINT LeftLeg
		{
			OFFSET 2.448110 -6.726130 0.000000 
			CHANNELS 3 Zrotation Yrotation Xrotation
			JOINT LeftFoot
			{
				OFFSET 2.562200 -7.039590 0.000000 
				CHANNELS 3 Zrotation Yrotation Xrotation
				JOINT LeftToeBase
				{
					OFFSET 0.157640 -0.433110 2.322550 
					CHANNELS 3 Zrotation Yrotation Xrotation
					End Site
					{
						OFFSET 0.000000 0.000000 0.000000 
					}
				}
			}
		}
	}
	JOINT RightUpLeg
	{
		OFFSET -1.305520 -1.794630 0.839290 
		CHANNELS 3 Zrotation Yrotation Xrotation
		JOINT RightLeg
		{
			OFFSET -2.542530 -6.985550 0.000000 
			CHANNELS 3 Zrotation Yrotation Xrotation
			JOINT RightFoot
			{
				OFFSET -2.568260 -7.056230 0.000000 
				CHANNELS 3 Zrotation Yrotation Xrotation
				JOINT RightToeBase
				{
					OFFSET -0.164730 -0.452590 2.363150 
					CHANNELS 3 Zrotation Yrotation Xrotation
					End Site
					{
						OFFSET 0.000000 0.000000 0.000000 
					}
				}
			}
		}
	}
	JOINT Spine
	{
		OFFSET 0.028270 2.035590 -0.193380 
		CHANNELS 3 Zrotation Yrotation Xrotation
		JOINT Spine1
		{
			OFFSET 0.056720 2.048850 -0.042750 
			CHANNELS 3 Zrotation Yrotation Xrotation
			JOINT Neck1
			{
				OFFSET -0.054170 1.746240 0.172020 
				CHANNELS 3 Zrotation Yrotation Xrotation
				JOINT Head
				{
					OFFSET 0.104070 1.761360 -0.123970 
					CHANNELS 3 Zrotation Yrotation Xrotation
					End Site
					{
						OFFSET 0.000000 0.000000 0.000000 
					}
				}
			}
			JOINT LeftArm
			{
				OFFSET 3.362410 1.200890 -0.311210 
				CHANNELS 3 Zrotation Yrotation Xrotation
				JOINT LeftForeArm
				{
					OFFSET 4.983000 -0.000000 -0.000000 
					CHANNELS 3 Zrotation Yrotation Xrotation
					JOINT LeftHand
					{
						OFFSET 3.483560 -0.000000 -0.000000 
						CHANNELS 3 Zrotation Yrotation Xrotation
						JOINT LeftHandIndex1
						{
							OFFSET 0.715260 -0.000000 -0.000000 
							CHANNELS 3 Zrotation Yrotation Xrotation
							End Site
							{
								OFFSET 0.000000 0.000000 0.000000 
							}
						}
					}
				}
			}
			JOINT RightArm
			{
				OFFSET -3.136600 1.374050 -0.404650 
				CHANNELS 3 Zrotation Yrotation Xrotation
				JOINT RightForeArm
				{
					OFFSET -5.241900 -0.000000 -0.000000 
					CHANNELS 3 Zrotation Yrotation Xrotation
					JOINT RightHand
					{
						OFFSET -3.444170 -0.000000 -0.000000 
						CHANNELS 3 Zrotation Yrotation Xrotation
						JOINT RightHandIndex1
						{
							OFFSET -0.622530 -0.000000 -0.000000 
							CHANNELS 3 Zrotation Yrotation Xrotation
							End Site
							{
								OFFSET 0.000000 0.000000 0.000000 
							}
						}
					}
				}
			}
		}
	}
}
MOTION
Frames: 15
Frame Time: 0.041667
11.731756 18.051507 10.635207 -0.021755 5.028821 3.810649 -16.356327 1.826541 5.219945 -0.689758 4.133873 8.068996 2.017136 -9.120164 8.233620 4.346700 12.608000 37.918300 13.577291 3.800506 -16.810916 -0.010410 -7.767745 17.971320 0.463663 -12.284720 -21.237944 -0.013400 -0.748800 2.057700 0.577269 -0.144253 -4.756359 -0.970616 0.022361 2.545196 5.671498 -1.642659 18.021157 1.194400 -0.318400 3.746800 -74.069270 -16.440540 50.657499 17.523221 -23.192758 -3.613518 0.419371 0.362837 -13.634560 -7.125000 0.000000 0.000000 91.165787 -16.414035 11.813871 -12.788491 16.619203 -3.647584 1.561071 2.216152 6.911588 7.125000 0.000000 0.000000 
11.733450 18.026500 10.795914 0.053707 5.247318 3.971263 -16.355559 1.930265 5.474196 -0.664881 4.190953 8.234865 2.059540 -9.635118 8.316352 4.406800 12.682900 38.192900 13.442968 4.596942 -16.525961 0.266846 -6.950122 15.650435 0.511815 -13.155596 -22.550985 -0.006400 -0.516800 1.420100 0.611227 -0.199055 -4.798727 -0.875540 -0.004212 2.556894 6.008996 -1.736647 18.279502 1.306600 -0.346800 3.821500 -73.911732 -16.602934 50.517594 18.153585 -23.943053 -3.867030 0.425560 0.360069 -13.959960 -7.125000 0.000000 0.000000 91.378567 -16.643406 11.680493 -12.713859 16.529031 -3.627659 1.551937 2.223183 7.110770 7.125000 0.000000 0.000000 
11.736040 17.999998 10.958114 0.167088 5.443740 4.128717 -16.399805 2.048705 5.725914 -0.639137 4.255919 8.419715 2.098723 -10.156800 8.391413 4.463200 12.752500 38.448900 13.261640 5.330929 -16.258028 0.495230 -6.152727 13.427960 0.564360 -13.977437 -23.688116 -0.000800 -0.178500 0.490400 0.639498 -0.255134 -4.834922 -0.779749 -0.032275 2.579021 6.289199 -1.822217 18.507490 1.397100 -0.372600 3.889700 -73.769250 -16.725470 50.309561 18.813229 -24.722402 -4.140554 0.430889 0.354303 -14.306775 -7.125000 0.000000 0.000000 91.549122 -16.840201 11.600777 -12.636225 16.434806 -3.604961 1.546376 2.227087 7.322423 7.125000 0.000000 0.000000 
11.739428 17.972499 11.121810 0.312825 5.622294 4.284083 -16.485205 2.175231 5.973391 -0.612145 4.331473 8.631315 2.134968 -10.690031 8.473549 4.530400 12.834700 38.752700 13.033211 6.057275 -15.966076 0.678863 -5.372887 11.285732 0.616684 -14.717526 -24.653980 -0.000400 0.131800 -0.362100 0.664382 -0.316006 -4.863729 -0.680916 -0.063484 2.616352 6.527362 -1.895476 18.684651 1.472900 -0.394700 3.944100 -73.639206 -16.813768 50.057522 19.494984 -25.520513 -4.432655 0.435219 0.347078 -14.691769 -7.125000 0.000000 0.000000 91.673153 -17.000160 11.582213 -12.573909 16.360506 -3.588997 1.535483 2.235694 7.511830 7.125000 0.000000 0.000000 
11.743612 17.944204 11.287298 0.475525 5.788731 4.436029 -16.595169 2.304886 6.221364 -0.583988 4.415451 8.866105 2.167435 -11.225605 8.587230 4.633100 12.958300 39.212400 12.761334 6.880686 -15.585663 0.822719 -4.606723 9.203617 0.655189 -15.336275 -25.532081 -0.001800 0.273500 -0.751300 0.689238 -0.383982 -4.887972 -0.581976 -0.098377 2.662083 6.731784 -1.950764 18.809633 1.538400 -0.410700 3.982900 -73.529934 -16.851044 49.762753 20.196406 -26.333989 -4.743687 0.438791 0.339541 -15.074893 -7.125000 0.000000 0.000000 91.761050 -17.134178 11.598074 -12.540375 16.321919 -3.583444 1.517445 2.249644 7.681016 7.125000 0.000000 0.000000 
11.748295 17.915111 11.454082 0.636483 5.942367 4.583753 -16.709728 2.419515 6.475941 -0.554929 4.508943 9.127937 2.195511 -11.754782 8.729324 4.775800 13.126800 39.844900 12.452302 7.924054 -15.071523 0.933117 -3.857473 7.181840 0.676137 -15.869826 -26.430792 -0.001200 0.228000 -0.626400 0.716551 -0.458771 -4.911489 -0.488317 -0.136444 2.703686 6.912320 -1.992988 18.892429 1.597400 -0.422500 4.009000 -73.444591 -16.824100 49.418306 20.915923 -27.160236 -5.074229 0.442094 0.332344 -15.409127 -7.125000 0.000000 0.000000 91.820940 -17.247111 11.632667 -12.529766 16.311113 -3.585415 1.495699 2.266060 7.816771 7.125000 0.000000 0.000000 
11.752779 17.885222 11.621862 0.784939 6.079732 4.727096 -16.812596 2.513229 6.731152 -0.524710 4.616959 9.430884 2.219593 -12.274484 8.879048 4.936700 13.312200 40.548500 12.116700 9.267994 -14.417081 1.016693 -3.139806 5.254215 0.683438 -16.402517 -27.452205 -0.000100 0.059700 -0.164100 0.746563 -0.532336 -4.935834 -0.401540 -0.173297 2.734811 7.069286 -2.035386 18.957334 1.648700 -0.435800 4.031800 -73.382986 -16.735476 49.027484 21.656361 -28.000826 -5.425882 0.445494 0.324185 -15.686775 -7.125000 0.000000 0.000000 91.862308 -17.337709 11.681389 -12.522311 16.303351 -3.587013 1.476717 2.280127 7.913095 7.125000 0.000000 0.000000 
11.756266 17.854635 11.789941 0.909515 6.198402 4.868058 -16.884815 2.581563 6.981765 -0.493241 4.739499 9.775761 2.239659 -12.777955 9.026201 5.104000 13.499900 41.270000 11.767852 10.975409 -13.637508 1.081576 -2.475358 3.475305 0.671828 -16.988621 -28.722689 -0.001400 -0.237500 0.652500 0.780121 -0.592981 -4.963825 -0.321130 -0.203102 2.748951 7.188603 -2.089565 19.030383 1.687400 -0.456000 4.060100 -73.343538 -16.588119 48.627266 22.420049 -28.856418 -5.800210 0.449294 0.314910 -15.944202 -7.125000 0.000000 0.000000 91.902414 -17.424376 11.730686 -12.508413 16.285842 -3.583143 1.466295 2.286961 8.015088 7.125000 0.000000 0.000000 
11.758956 17.823749 11.958618 1.013090 6.305329 5.003092 -16.933871 2.625691 7.238742 -0.460722 4.872045 10.149507 2.255547 -13.260318 9.177703 5.271600 13.683300 41.983400 11.417886 12.960425 -12.795083 1.133487 -1.892084 1.919962 0.628567 -17.605150 -30.269294 -0.009600 -0.633200 1.740000 0.815836 -0.639661 -4.994005 -0.251145 -0.225394 2.749681 7.265936 -2.159503 19.108193 1.711600 -0.485300 4.090800 -73.319014 -16.400216 48.261189 23.190796 -29.706818 -6.190316 0.453799 0.306382 -16.215106 -7.125000 0.000000 0.000000 91.941657 -17.510181 11.786193 -12.481333 16.250564 -3.571468 1.466635 2.285203 8.148188 7.125000 0.000000 0.000000 
11.761945 17.793162 12.128590 1.116768 6.413164 5.124619 -16.995261 2.650668 7.516615 -0.427285 5.012042 10.543729 2.266708 -13.725710 9.361840 5.455900 13.879500 42.756800 11.088671 14.927055 -12.013554 1.172935 -1.422906 0.677780 0.549566 -18.153589 -31.899182 -0.024100 -1.002500 2.755600 0.853650 -0.687310 -5.020514 -0.184214 -0.248302 2.751973 7.302017 -2.233945 19.185538 1.722300 -0.518400 4.122800 -73.308261 -16.189050 47.930241 23.946628 -30.527771 -6.585081 0.459085 0.299719 -16.512367 -7.125000 0.000000 0.000000 91.956297 -17.580992 11.874721 -12.436206 16.193065 -3.552202 1.476923 2.276306 8.311579 7.125000 0.000000 0.000000 
11.765731 17.763272 12.300156 1.224954 6.533042 5.229662 -17.081805 2.650086 7.823013 -0.393450 5.155950 10.948690 2.272670 -14.168704 9.592636 5.661500 14.092100 43.607500 10.841966 16.456674 -11.462615 1.197392 -1.103255 -0.162148 0.456958 -18.506305 -33.215055 -0.034400 -1.197400 3.292100 0.894984 -0.747242 -5.040246 -0.117159 -0.277192 2.766578 7.302795 -2.301101 19.251045 1.722600 -0.549900 4.151000 -73.312387 -15.957023 47.626124 24.679275 -31.311489 -6.979050 0.465172 0.294721 -16.836130 -7.125000 0.000000 0.000000 91.938779 -17.635518 11.993294 -12.388176 16.132303 -3.531670 1.492573 2.263744 8.499235 7.125000 0.000000 0.000000 
11.770912 17.734279 12.473516 1.325848 6.673126 5.310326 -17.183724 2.625656 8.163200 -0.360039 5.300927 11.356091 2.273200 -14.566642 9.848523 5.850100 14.281500 44.377100 10.766121 17.095186 -11.300665 1.200300 -0.960188 -0.538196 0.392975 -18.511478 -33.720030 -0.030200 -1.121500 3.083100 0.939323 -0.818473 -5.050979 -0.060132 -0.311015 2.796584 7.288410 -2.358697 19.280261 1.719500 -0.579200 4.164500 -73.339066 -15.706294 47.339303 25.383325 -32.053561 -7.367698 0.472040 0.290007 -17.147375 -7.125000 0.000000 0.000000 91.899433 -17.672415 12.107333 -12.354577 16.090721 -3.518325 1.507617 2.252671 8.678601 7.125000 0.000000 0.000000 
11.777188 17.706283 12.648768 1.418963 6.829237 5.357985 -17.291485 2.594098 8.531319 -0.326604 5.450927 11.776984 2.268973 -14.905716 10.119780 6.000600 14.428900 44.984100 10.895676 16.698862 -11.549400 1.178586 -0.992216 -0.459851 0.378870 -18.089975 -33.192161 -0.015600 -0.805400 2.213500 0.987250 -0.897825 -5.051400 -0.006538 -0.347918 2.840769 7.276373 -2.403687 19.267727 1.719800 -0.604400 4.161300 -73.403215 -15.433285 47.044519 26.056129 -32.753093 -7.748062 0.479810 0.284274 -17.397939 -7.125000 0.000000 0.000000 91.833690 -17.678371 12.191276 -12.329402 16.061123 -3.511115 1.519625 2.245467 8.829225 7.125000 0.000000 0.000000 
11.783067 17.678685 12.825714 1.510492 6.985971 5.375875 -17.390799 2.572785 8.903124 -0.291100 5.616621 12.242053 2.261345 -15.191357 10.406254 6.104100 14.528500 45.398100 11.185553 15.582621 -12.071246 1.137239 -1.163367 -0.019895 0.402151 -17.348228 -31.852088 -0.002800 -0.343700 0.944500 1.039292 -0.981033 -5.046997 0.059168 -0.385743 2.884656 7.257108 -2.436313 19.225342 1.718400 -0.625200 4.144400 -73.507647 -15.122273 46.732275 26.700113 -33.414544 -8.120125 0.488602 0.277217 -17.577210 -7.125000 0.000000 0.000000 91.739439 -17.655256 12.228420 -12.304249 16.031821 -3.505547 1.528377 2.241515 8.953700 7.125000 0.000000 0.000000 
11.787749 17.651087 13.004554 1.613397 7.141411 5.369963 -17.480446 2.571800 9.253945 -0.250778 5.810915 12.787914 2.251154 -15.436545 10.703921 6.149800 14.571900 45.580000 11.545965 14.205769 -12.658551 1.084903 -1.412174 0.624706 0.451372 -16.525837 -30.080035 -0.000900 0.190200 -0.522600 1.093814 -1.066530 -5.046714 0.145359 -0.423895 2.905684 7.209701 -2.465538 19.174699 1.705900 -0.645500 4.121200 -73.654623 -14.754205 46.406436 27.311789 -34.036015 -8.480869 0.498483 0.268739 -17.681768 -7.125000 0.000000 0.000000 91.626616 -17.626215 12.206022 -12.282595 16.005534 -3.500602 1.534925 2.238982 9.061650 7.125000 0.000000 0.000000 
